<svg viewBox="0 0 1024 1024" xmlns="http://www.w3.org/2000/svg"> <path d="M957.335952 0a66.692685 66.692685 0 0 1 63.638058 69.429122v624.798459a66.692685 66.692685 0 0 1-63.638058 69.429122h-890.93282a66.692685 66.692685 0 0 1-63.638058-69.429122V69.429122A66.692685 66.692685 0 0 1 66.403132 0h890.93282z m-31.819029 69.429122h-827.294762a33.346343 33.346343 0 0 0-31.819029 34.682742v555.369337a33.346343 33.346343 0 0 0 31.819029 34.682742h827.294762a33.346343 33.346343 0 0 0 31.819029-34.682742V104.111864a33.346343 33.346343 0 0 0-31.819029-34.682742z"></path> <path d="M291.936412 958.4528h432.229693q30.864458 0 30.864459 32.7736t-30.864459 32.7736H291.936412q-30.864458 0-30.864459-32.7736t30.864459-32.7736z"></path> <path d="M474.959468 763.656703h65.610838v194.796097H474.959468z"></path> <path d="M703.738288 214.396619v91.320614a29.528059 29.528059 0 0 1-9.863899 22.909701 35.000932 35.000932 0 0 1-22.846063 9.800261H579.77135a29.655335 29.655335 0 0 1-22.846063-9.863899 31.500839 31.500839 0 0 1 0-45.628488 29.591697 29.591697 0 0 1 22.846063-9.863899h13.109441a133.130818 133.130818 0 0 0-81.774906-29.273507 120.912311 120.912311 0 0 0-94.629793 39.137406 32.264496 32.264496 0 1 1-45.628488-45.628488 197.277981 197.277981 0 0 1 140.385557-58.801566 192.632403 192.632403 0 0 1 127.276117 48.937667v-13.045802a29.718973 29.718973 0 0 1 9.800261-22.846063 31.500839 31.500839 0 0 1 45.628488 0 25.455223 25.455223 0 0 1 9.800261 22.846063zM458.986315 465.639674a35.128208 35.128208 0 0 1-22.846063 9.863899H426.276353a117.221304 117.221304 0 0 0 78.33845 29.337145 118.494065 118.494065 0 0 0 91.320614-39.137406 32.328134 32.328134 0 1 1 45.628488 45.692126 184.041265 184.041265 0 0 1-137.076378 58.67429 192.377851 192.377851 0 0 1-127.276117-48.937667v16.354981a29.782611 29.782611 0 0 1-9.800261 22.846063 31.500839 31.500839 0 0 1-45.628488 0 37.03735 37.03735 0 0 1-9.863899-26.091604V442.920887a33.600895 33.600895 0 0 1 32.646324-32.646324h91.320614a29.400783 29.400783 0 0 1 22.846063 9.863899 31.500839 31.500839 0 0 1 0 45.628488z"></path> </svg>