<svg viewBox="0 0 1024 1024" xmlns="http://www.w3.org/2000/svg"> <path d="M206.93 768.03l-0.03-0.03c-16.26-16.24-16.26-42.59-0.02-58.84l197.2-197.2L206.9 314.84c-16.25-16.25-16.25-42.6 0.01-58.84l0.02-0.02c16.25-16.23 42.57-16.22 58.8 0.02L500.5 490.77c11.71 11.71 11.72 30.71 0 42.42L265.74 768.01c-16.24 16.24-42.56 16.25-58.81 0.02z m320 0l-0.03-0.03c-16.26-16.24-16.26-42.58-0.02-58.83l197.14-197.2-197.15-197.15c-16.24-16.24-16.24-42.58 0-58.82 16.24-16.24 42.57-16.24 58.82 0L820.5 490.76c11.72 11.71 11.72 30.71 0 42.43L585.74 768.01c-16.24 16.24-42.56 16.25-58.81 0.02z"></path> </svg>