<svg viewBox="0 0 1170 1024" xmlns="http://www.w3.org/2000/svg"> <path d="M1170.285714 731.428571v146.285715a146.285714 146.285714 0 0 1-146.285714 146.285714H146.285714a146.285714 146.285714 0 0 1-146.285714-146.285714V658.285714l146.285714-658.285714h877.714286l146.285714 658.285714v73.142857zM219.428571 950.857143h731.428572c80.822857 0 146.285714 7.68 146.285714-73.142857v-146.285715H73.142857v146.285715c0 80.822857 65.828571 73.142857 146.285714 73.142857zM950.857143 73.142857H219.428571L73.142857 658.285714h1024zM512 950.857143H438.857143v-146.285714h73.142857v146.285714z m146.285714 0H585.142857v-146.285714h73.142857v146.285714z m146.285715 0h-73.142858v-146.285714h73.142858v146.285714z m146.285714 0h-73.142857v-146.285714h73.142857v146.285714z"></path> </svg>