<svg viewBox="0 0 1024 1024" xmlns="http://www.w3.org/2000/svg"> <path d="M744.448 106.496c-144.896-82.432-322.56-81.408-466.944 2.56C133.632 193.024 45.568 347.648 46.08 514.56 47.104 680.96 136.704 834.56 281.6 917.504c144.896 82.432 323.072 81.408 466.944-2.56 144.384-83.968 232.448-238.592 231.424-405.504-1.024-166.4-90.624-320.512-235.52-402.944zM481.28 786.944c-202.24 0-366.08-163.84-366.08-366.08v-0.170667C115.2 218.453333 279.210667 54.613333 481.28 54.784c202.24 0 366.08 164.010667 366.08 366.08 0 202.24-163.84 366.08-366.08 366.08z"></path> <path d="M422.058667 199.168c26.624 6.144 45.568 19.456 57.856 40.448 11.264 21.504 14.336 41.984 9.728 61.952l-2.56 10.24c-3.584 16.896-11.776 35.84-24.064 57.344-15.36 27.136-36.352 53.76-63.488 79.872 11.264 5.12 22.528 9.728 33.792 14.336l-41.472 88.576c-25.088-9.728-47.616-20.48-68.608-31.744-24.064 20.48-49.152 39.424-75.264 57.344l-44.032-82.432c13.824-10.24 27.136-20.48 39.936-30.208-10.24-8.192-18.944-16.896-27.136-25.6l47.104-82.432c16.384 16.384 34.304 30.72 52.736 44.032 23.04-21.504 41.472-41.984 55.296-61.952 12.288-15.872 19.456-28.672 21.504-38.912 0.512-2.56 0.512-5.12-1.024-6.656-1.024-2.048-3.072-3.072-6.144-3.584-11.776-2.56-26.112-3.584-43.52-3.072-20.992 2.56-40.96 7.68-59.392 14.336l-13.824-101.888c15.872-4.608 36.864-7.68 62.464-8.192 30.72-1.536 60.416 1.536 90.112 8.192z m240.64 36.864c27.136 6.144 46.592 20.992 58.368 44.544 11.264 24.064 14.336 47.616 8.704 70.656l-2.56 11.776c-4.096 18.944-13.312 40.96-27.648 65.536-18.944 31.744-44.544 62.976-76.8 93.696 26.112 11.264 53.248 21.504 81.408 31.232l-41.472 88.576c-43.52-14.848-83.456-30.72-118.784-48.128-30.72 26.624-63.488 50.688-97.792 73.216l-45.568-85.504c18.432-13.312 35.84-26.112 52.224-38.912-10.581333-6.656-20.821333-13.824-30.72-21.504l47.104-82.432c19.456 13.312 39.424 25.6 60.928 37.888l6.144-6.144c28.16-25.6 50.688-50.176 68.096-74.24 14.336-18.944 23.04-34.304 25.6-46.08 1.536-6.656 2.048-12.288 2.048-16.896-0.512-4.608-2.048-7.168-3.584-7.68-12.288-3.072-27.648-4.096-45.568-4.096-21.504 2.56-42.496 7.168-61.952 13.824l-13.824-101.376c16.384-4.608 37.888-7.168 64-8.192 30.72 0 61.44 3.072 91.648 10.24z"></path> </svg>