<svg viewBox="0 0 1024 1024" xmlns="http://www.w3.org/2000/svg"> <path d="M225.696348 1023.850074h-2.536689a32.417397 32.417397 0 0 1-29.843404-34.319914c0.52226-4.066164 8.169632-106.988602 65.021316-249.341638 52.225957-130.564891 157.685084-321.040416 362.485443-485.365658A32.081659 32.081659 0 0 1 661.111609 304.997087C289.710449 602.461213 257.442269 990.574679 256.957314 994.155887a31.074444 31.074444 0 0 1-31.260966 29.843404z"></path> <path d="M688.045281 318.799661c-30.701402 0-56.81438-9.699106-72.705993-32.230876-11.75084-16.898827-25.590719-53.792735 12.310404-114.188324 23.016725-36.856604 60.917848-74.235467 105.981388-105.496432s93.708288-53.755431 135.675574-62.447322c69.647043-14.921702 99.86349 11.191276 111.129375 28.164712 42.489546 60.917848-27.679757 156.67787-118.291792 219.647452-56.329425 39.430597-122.357955 66.55079-174.098956 66.55079z m219.684755-254.974581a134.668359 134.668359 0 0 0-25.105763 3.058949c-33.797655 7.199721-74.608509 26.112978-112.658849 52.748216s-70.131999 57.858899-88.038041 87.030826c-15.891612 25.105763-16.376568 39.952857-13.839879 43.534066 7.162417 10.25867 72.705992 8.691891 158.207344-50.696482s109.562596-120.306221 102.400179-130.564892c-2.051734-2.536689-8.169632-5.110683-20.964991-5.110683z m-209.948345 546.84307a490.9986 490.9986 0 0 1-60.917848-4.103469c-54.79995-7.162417-105.496432-23.538985-142.353036-45.585799-61.440107-36.334344-66.028531-75.764941-63.417233-95.722717s17.421087-56.851684 86.023612-75.802246c42.004591-11.191276 94.715503-13.802574 149.515452-6.640157 109.562596 14.324834 215.543983 67.595309 205.844878 141.308517-7.759285 59.910633-86.09822 86.545871-174.695825 86.545871z m-92.141509-167.869146a292.950312 292.950312 0 0 0-71.176518 8.169631c-28.686972 7.684676-38.908338 18.950561-39.430597 22.382553s6.640157 16.898827 32.26818 32.26818c29.843404 17.421087 72.705992 31.223661 118.254487 36.856604 103.444698 13.839878 161.788552-14.921702 163.840287-27.642453s-47.600229-55.956382-151.044927-69.124784a467.23579 467.23579 0 0 0-52.710912-2.98434z m-25.105763 437.16856a433.92309 433.92309 0 0 1-97.774452-11.75084c-53.792735-12.310404-102.400179-33.312699-137.764612-58.381159-57.821595-42.004591-58.343854-81.397884-53.755431-101.392964s22.382553-55.284905 92.701072-67.558005c42.489546-7.684676 95.722717-5.147987 149.478149 7.647372 108.182339 24.583504 208.418871 87.553086 191.520043 159.774123-11.191276 50.659178-72.221037 71.661473-144.404769 71.661473z m-145.486594-179.060422a237.963841 237.963841 0 0 0-39.915552 3.096253c-29.209231 5.110683-41.03468 14.921702-41.482331 18.950561s5.110683 17.383783 29.171927 35.327129c27.642453 19.957776 69.647043 37.863818 114.188323 48.122489 101.35566 23.538985 162.833072 0 165.369761-11.788145s-41.967287-59.910633-143.36025-82.927358a351.5926 351.5926 0 0 0-83.971878-10.780929z"></path> <path d="M445.866059 475.477531c-21.487251 0-56.81438-10.221366-87.030826-68.080265-19.957776-38.423382-33.275395-89.530211-37.901123-144.889725s0.52226-108.182339 14.362138-149.030498c22.00951-67.558005 59.388373-80.353365 79.86841-82.06936s59.425678 5.297204 92.141509 68.266786c19.995081 38.386078 33.312699 89.530211 37.901122 144.889725 8.691891 110.084856-21.002295 224.795439-94.715502 230.913337z m-25.068459-379.90653c-4.103468 0.52226-15.369353 10.25867-25.105763 38.386078-10.743625 32.79044-14.921702 77.853979-11.191277 123.402475 3.730425 46.108059 14.921702 89.530211 30.738706 120.343525 13.802574 26.597934 26.635238 34.28261 30.701402 33.797655 12.310404-1.044519 44.54128-58.381159 35.849388-161.825857-3.730425-46.070755-14.921702-89.530211-30.701401-120.306221-13.802574-26.112978-26.187587-33.797655-30.291055-33.797655zM298.402341 687.47761c-55.956382 0-127.468638-48.495531-181.746329-111.129375C80.284363 534.865904 53.052258 489.317409 39.846551 448.357337c-22.00951-67.595309 0.52226-100.348445 15.891613-113.666064 55.956382-48.495531 158.729604 10.221366 231.286379 93.708288s117.247272 193.534473 61.440107 242.179222a81.285971 81.285971 0 0 1-50.211526 16.898827z m-193.534474-307.237842a10.706321 10.706321 0 0 0-7.684676 2.051734c-3.058949 2.573994-6.117898 17.421087 3.096253 45.5858 10.743625 32.753136 34.28261 71.176518 64.499056 105.981387 68.602524 78.338935 131.60941 95.760022 140.823562 87.553086s1.007215-73.228252-67.59531-151.567187c-57.858899-66.923833-112.658849-89.60482-133.138885-89.60482z"></path> </svg>