<svg viewBox="0 0 1024 1024" xmlns="http://www.w3.org/2000/svg"><path d="M896 85.333333a42.666667 42.666667 0 0 1 42.666667 42.666667v768a42.666667 42.666667 0 0 1-42.666667 42.666667H213.333333a42.666667 42.666667 0 0 1-42.666666-42.666667v-170.666667h85.333333a42.666667 42.666667 0 0 0 42.666667-42.666666V341.333333a42.666667 42.666667 0 0 0-42.666667-42.666666H170.666667V128a42.666667 42.666667 0 0 1 42.666666-42.666667h682.666667z m-298.666667 213.333334a213.333333 213.333333 0 1 0 0 426.666666 213.333333 213.333333 0 0 0 0-426.666666z m-384 256a42.666667 42.666667 0 0 1 0 85.333333H170.666667a42.666667 42.666667 0 0 1 0-85.333333h42.666666z m341.333334-128a42.666667 42.666667 0 0 1 42.666666 42.666666v42.666667h42.666667a42.666667 42.666667 0 0 1 0 85.333333h-85.333333a42.666667 42.666667 0 0 1-42.666667-42.666666v-85.333334a42.666667 42.666667 0 0 1 42.666667-42.666666zM213.333333 384a42.666667 42.666667 0 1 1 0 85.333333H170.666667a42.666667 42.666667 0 0 1 0-85.333333h42.666666z"></path></svg>