<svg viewBox="0 0 1024 1024" xmlns="http://www.w3.org/2000/svg"> <path d="M511.3 525.4c-236.7 0-415.2-98.8-415.2-229.8S274.6 65.8 511.3 65.8s415.2 98.8 415.2 229.8c0.1 131-178.5 229.8-415.2 229.8z m0-370.2c-186.5 0-325.8 74.1-325.8 140.4 0 66.3 139.3 140.4 325.8 140.4s325.8-74.1 325.8-140.4c0.1-66.3-139.3-140.4-325.8-140.4z"></path> <path d="M511.3 742.5c-236.7 0-415.2-98.8-415.2-229.8V295.6c0-24.7 20-44.7 44.7-44.7s44.7 20 44.7 44.7v217.2c0 66.3 139.3 140.4 325.8 140.4S837.2 579 837.2 512.8V295.6c0-24.7 20-44.7 44.7-44.7 24.7 0 44.7 20 44.7 44.7v217.2c0 131-178.6 229.7-415.3 229.7z"></path> <path d="M511.3 959.7C274.6 959.7 96.1 861 96.1 730V512.8c0-24.7 20-44.7 44.7-44.7s44.7 20 44.7 44.7V730c0 66.3 139.3 140.4 325.8 140.4S837.2 796.2 837.2 730V512.8c0-24.7 20-44.7 44.7-44.7 24.7 0 44.7 20 44.7 44.7V730c0 131-178.6 229.7-415.3 229.7z"></path> </svg>