<svg viewBox="0 0 1170 1024" xmlns="http://www.w3.org/2000/svg"> <path d="M351.085714 147.748571c40.338286 0 73.142857-32.841143 73.142857-73.142857 0-40.301714-32.804571-73.142857-73.142857-73.142857s-73.142857 32.841143-73.142857 73.142857c0 40.301714 32.804571 73.142857 73.142857 73.142857z m0 561.737143c32.256 0 58.514286-26.294857 58.514286-58.514285V229.668571c0-32.256-26.258286-58.514286-58.514286-58.514285-32.256 0-58.514286 26.258286-58.514285 58.514285V650.971429c0 32.219429 26.258286 58.514286 58.514285 58.514285z"></path> <path d="M809.179429 171.081143h-210.797715c-31.561143 0-57.307429 24.685714-58.587428 57.746286-1.462857 38.656-8.777143 241.883429-8.777143 443.538285 0 169.837714-66.779429 200.886857-198.217143 200.886857-157.257143 0-215.771429-54.454857-215.771429-200.886857V229.632c0-32.219429-26.258286-58.514286-58.514285-58.514286-32.256 0-58.514286 26.294857-58.514286 58.514286v442.733714c0 211.017143 112.018286 317.988571 332.873143 317.988572 135.314286 0 315.245714-32.950857 315.318857-317.988572 0-152.576 4.242286-306.870857 6.765714-384.146285h154.258286c108.690286 0 244.041143 0 244.041143 281.453714 0 252.891429-142.884571 290.413714-297.106286 293.302857a58.258286 58.258286 0 0 0-41.252571 17.554286c-10.971429 11.227429-16.859429 25.965714-16.713143 41.581714 0.256 31.926857 26.514286 57.965714 60.013714 57.965714C1031.68 974.884571 1170.285714 836.827429 1170.285714 569.709714c0-398.628571-262.363429-398.628571-361.106285-398.628571z"></path> </svg>